<svg xmlns="http://www.w3.org/2000/svg" viewBox="0 0 128 128" width="128" height="128">
  <defs>
    <linearGradient id="fg" x1="0.5" y1="1" x2="0.5" y2="0">
      <stop offset="0%" stop-color="#7B2FBE"/>
      <stop offset="40%" stop-color="#9B4DCA"/>
      <stop offset="70%" stop-color="#D4A03C"/>
      <stop offset="100%" stop-color="#F5C842"/>
    </linearGradient>
    <linearGradient id="ig" x1="0.5" y1="1" x2="0.5" y2="0">
      <stop offset="0%" stop-color="#5B1F9E"/>
      <stop offset="50%" stop-color="#7B2FBE"/>
      <stop offset="100%" stop-color="#D4A03C"/>
    </linearGradient>
    <filter id="gl" x="-25%" y="-25%" width="150%" height="150%">
      <feGaussianBlur stdDeviation="2" result="b"/>
      <feFlood flood-color="#D4A03C" flood-opacity="0.3"/>
      <feComposite in2="b" operator="in"/>
      <feComposite in="SourceGraphic"/>
    </filter>
  </defs>
  <g filter="url(#gl)">
    <!-- Outer flame -->
    <path d="M64 10 C64 10,88 38,96 55 C104 72,107 82,106 92 C105 102,100 110,92 117 C84 124,75 127,64 128 C53 127,44 124,36 117 C28 110,23 102,22 92 C21 82,24 72,32 55 C40 38,64 10,64 10Z" fill="url(#fg)" opacity="0.95"/>
    <!-- Inner flame -->
    <path d="M64 32 C64 32,82 50,88 64 C94 78,94 86,92 94 C90 102,84 108,78 112 C72 116,68 118,64 118 C60 118,56 116,50 112 C44 108,38 102,36 94 C34 86,34 78,40 64 C46 50,64 32,64 32Z" fill="url(#ig)" opacity="0.85"/>
    <!-- Core glow -->
    <path d="M64 60 C64 60,78 74,82 84 C86 94,84 100,80 106 C76 112,70 114,64 114 C58 114,52 112,48 106 C44 100,42 94,46 84 C50 74,64 60,64 60Z" fill="#F5C842" opacity="0.45"/>
    <!-- Play button -->
    <path d="M58 86 L58 100 L70 93Z" fill="#F5C842" opacity="0.85"/>
  </g>
</svg>
